<svg width="26" height="25" viewBox="0 0 26 25" fill="none" xmlns="http://www.w3.org/2000/svg">
<path opacity="0.54" fill-rule="evenodd" clip-rule="evenodd" d="M17.9952 15.7224H16.8603L16.4658 15.3307C17.8594 13.7056 18.707 11.5988 18.707 9.29049C18.707 4.15928 14.5475 1.90735e-06 9.41602 1.90735e-06C4.28452 1.90735e-06 0.125 4.15928 0.125 9.29049C0.125 14.4217 4.28452 18.581 9.41602 18.581C11.7245 18.581 13.83 17.7348 15.4552 16.3427L15.8497 16.7343V17.8663L22.9938 25L25.125 22.8689L17.9952 15.7224ZM9.41613 15.7223C5.86267 15.7223 2.98389 12.8436 2.98389 9.29038C2.98389 5.73856 5.86267 2.8585 9.41613 2.8585C12.9682 2.8585 15.8484 5.73856 15.8484 9.29038C15.8484 12.8436 12.9682 15.7223 9.41613 15.7223Z" fill="#4B6688"/>
</svg>
