<svg width="25" height="19" viewBox="0 0 25 19" fill="none" xmlns="http://www.w3.org/2000/svg">
<path d="M16.3104 0.236204C16.0042 -0.0107893 15.5667 -0.0696929 15.1938 0.0861125C14.8229 0.240013 14.5833 0.578195 14.5833 0.950566V3.80049H13.9667C7.27082 3.80049 1.50828 8.35842 0.560381 14.404L0.0103552 17.917C-0.0584111 18.3597 0.220779 18.7891 0.685383 18.943C0.80203 18.981 0.922906 19 1.04164 19C1.39163 19 1.73124 18.8385 1.92495 18.5535L3.46037 16.3116C5.56873 13.2375 9.20207 11.4002 13.1791 11.4002H14.5833V14.2502C14.5833 14.6225 14.8228 14.9608 15.1937 15.1146C15.5625 15.2685 16.0021 15.2115 16.3104 14.9645L24.6437 8.31475C24.8708 8.13428 25 7.87586 25 7.60039C25 7.32492 24.8708 7.0665 24.6437 6.88603L16.3104 0.236204Z" fill="#9AA9BC"/>
</svg>
