<svg width="27" height="25" viewBox="0 0 27 25" fill="none" xmlns="http://www.w3.org/2000/svg">
<path id="Vector" d="M26.7037 11.1519L14.1593 0.240578C13.7902 -0.0801927 13.2088 -0.0801927 12.8397 0.240578L0.296034 11.1519C-0.324784 11.6925 0.095657 12.6452 0.956225 12.6452H3.39872C3.92603 12.6452 4.3528 13.0331 4.3528 13.5123V24.1329C4.3528 24.6115 4.78027 25 5.30687 25H10.1595V19.5086C10.1595 17.8319 11.655 16.4727 13.4998 16.4727C15.3447 16.4727 16.8402 17.8319 16.8402 19.5086V25H21.6928C22.2194 25 22.6469 24.6121 22.6469 24.1329V13.5123C22.6469 13.0331 23.0737 12.6452 23.601 12.6452H26.0435C26.904 12.6452 27.3252 11.6918 26.7037 11.1519Z" fill="#C44628"/>
</svg>
